<svg xmlns="http://www.w3.org/2000/svg" version="1.1" viewBox="-5.0 -10.0 110.0 135.0">
 <path d="m88.762 16.699c-0.57812-0.46875-1.3203-0.67188-2.0586-0.57031-1.9883 0.26172-6.5117 0.58984-16.73 0.64062h-0.57812c-19.551 0.28906-44.379 9.3789-50 34.09-0.62891 2.7812-2.2305 11.32-0.10156 18.52 9.5898-4.1016 18.488-10.051 27.16-15.789 11.699-8.0391 22.98-16.77 33.809-25.969-10.328 9.7695-21.121 19.078-32.371 27.738-11.121 8.2617-22.641 16.91-35.898 21.148-1.5195 0.42969-2.3711 2.0781-1.8281 3.5586 0.51172 1.4219 2.0781 2.1602 3.5 1.6484 3.6016-1.2891 6.8906-2.9805 10.051-4.8281 0.078125-0.050781 0.14844-0.089844 0.23047-0.14062 4.6211 3.8984 11.949 5.8008 17.922 6.7188 1.8398 0.28125 3.6484 0.42188 5.4492 0.42188 12.98 0 24.75-7.2617 32.211-20.141 7.6016-13.129 11.52-30.441 10.238-45.191-0.058594-0.73828-0.42188-1.4102-1-1.8711z"/>
<text x="0.0" y="117.5" font-size="5.0" font-weight="bold" font-family="Arbeit Regular, Helvetica, Arial-Unicode, Arial, Sans-serif" fill="#000000">Created by Kosong Tujuh</text><text x="0.0" y="122.5" font-size="5.0" font-weight="bold" font-family="Arbeit Regular, Helvetica, Arial-Unicode, Arial, Sans-serif" fill="#000000">from Noun Project</text></svg>