<svg xmlns="http://www.w3.org/2000/svg" viewBox="0 0 32 40" x="0px" y="0px"><g><path d="M18.92,2.6a3.46,3.46,0,0,0-5.84,0C9.4,8.36,5,16.06,5,20a11,11,0,0,0,22,0C27,16.06,22.6,8.36,18.92,2.6ZM16,29a9,9,0,0,1-9-9c0-2.66,2.83-8.61,7.77-16.32a1.45,1.45,0,0,1,2.46,0C22.17,11.39,25,17.34,25,20A9,9,0,0,1,16,29Zm1-4a1,1,0,0,1-1,1,6,6,0,0,1-6-6,1,1,0,0,1,2,0,4,4,0,0,0,4,4A1,1,0,0,1,17,25Z"/></g><text x="0" y="47" fill="#000000" font-size="5px" font-weight="bold" font-family="'Helvetica Neue', Helvetica, Arial-Unicode, Arial, Sans-serif">Created by Ricons</text><text x="0" y="52" fill="#000000" font-size="5px" font-weight="bold" font-family="'Helvetica Neue', Helvetica, Arial-Unicode, Arial, Sans-serif">from the Noun Project</text></svg>